<svg id="visual" viewBox="0 0 1920 1000" width="1920" height="1000" xmlns="http://www.w3.org/2000/svg" xmlns:xlink="http://www.w3.org/1999/xlink" version="1.1"><rect x="0" y="0" width="1920" height="1000" fill="#001122"></rect><path d="M0 655L26.7 639.2C53.3 623.3 106.7 591.7 160 583.8C213.3 576 266.7 592 320 619.8C373.3 647.7 426.7 687.3 480 684.3C533.3 681.3 586.7 635.7 640 628.8C693.3 622 746.7 654 800 652.7C853.3 651.3 906.7 616.7 960 604.2C1013.3 591.7 1066.7 601.3 1120 622.8C1173.3 644.3 1226.7 677.7 1280 685.5C1333.3 693.3 1386.7 675.7 1440 666C1493.3 656.3 1546.7 654.7 1600 655.2C1653.3 655.7 1706.7 658.3 1760 660.8C1813.3 663.3 1866.7 665.7 1893.3 666.8L1920 668L1920 1001L1893.3 1001C1866.7 1001 1813.3 1001 1760 1001C1706.7 1001 1653.3 1001 1600 1001C1546.7 1001 1493.3 1001 1440 1001C1386.7 1001 1333.3 1001 1280 1001C1226.7 1001 1173.3 1001 1120 1001C1066.7 1001 1013.3 1001 960 1001C906.7 1001 853.3 1001 800 1001C746.7 1001 693.3 1001 640 1001C586.7 1001 533.3 1001 480 1001C426.7 1001 373.3 1001 320 1001C266.7 1001 213.3 1001 160 1001C106.7 1001 53.3 1001 26.7 1001L0 1001Z" fill="#fa7268"></path><path d="M0 639L26.7 633.8C53.3 628.7 106.7 618.3 160 636.8C213.3 655.3 266.7 702.7 320 715.8C373.3 729 426.7 708 480 694.8C533.3 681.7 586.7 676.3 640 670.2C693.3 664 746.7 657 800 654.2C853.3 651.3 906.7 652.7 960 646.8C1013.3 641 1066.7 628 1120 618.8C1173.3 609.7 1226.7 604.3 1280 601.2C1333.3 598 1386.7 597 1440 621.2C1493.3 645.3 1546.7 694.7 1600 699.5C1653.3 704.3 1706.7 664.7 1760 656.5C1813.3 648.3 1866.7 671.7 1893.3 683.3L1920 695L1920 1001L1893.3 1001C1866.7 1001 1813.3 1001 1760 1001C1706.7 1001 1653.3 1001 1600 1001C1546.7 1001 1493.3 1001 1440 1001C1386.7 1001 1333.3 1001 1280 1001C1226.7 1001 1173.3 1001 1120 1001C1066.7 1001 1013.3 1001 960 1001C906.7 1001 853.3 1001 800 1001C746.7 1001 693.3 1001 640 1001C586.7 1001 533.3 1001 480 1001C426.7 1001 373.3 1001 320 1001C266.7 1001 213.3 1001 160 1001C106.7 1001 53.3 1001 26.7 1001L0 1001Z" fill="#f66b68"></path><path d="M0 721L26.7 708.2C53.3 695.3 106.7 669.7 160 673.7C213.3 677.7 266.7 711.3 320 715.8C373.3 720.3 426.7 695.7 480 694C533.3 692.3 586.7 713.7 640 728.7C693.3 743.7 746.7 752.3 800 752C853.3 751.7 906.7 742.3 960 727.8C1013.3 713.3 1066.7 693.7 1120 695.3C1173.3 697 1226.7 720 1280 728.2C1333.3 736.3 1386.7 729.7 1440 712.2C1493.3 694.7 1546.7 666.3 1600 674.5C1653.3 682.7 1706.7 727.3 1760 745.5C1813.3 763.7 1866.7 755.3 1893.3 751.2L1920 747L1920 1001L1893.3 1001C1866.7 1001 1813.3 1001 1760 1001C1706.7 1001 1653.3 1001 1600 1001C1546.7 1001 1493.3 1001 1440 1001C1386.7 1001 1333.3 1001 1280 1001C1226.7 1001 1173.3 1001 1120 1001C1066.7 1001 1013.3 1001 960 1001C906.7 1001 853.3 1001 800 1001C746.7 1001 693.3 1001 640 1001C586.7 1001 533.3 1001 480 1001C426.7 1001 373.3 1001 320 1001C266.7 1001 213.3 1001 160 1001C106.7 1001 53.3 1001 26.7 1001L0 1001Z" fill="#f26467"></path><path d="M0 755L26.7 757.8C53.3 760.7 106.7 766.3 160 757C213.3 747.7 266.7 723.3 320 706.7C373.3 690 426.7 681 480 680C533.3 679 586.7 686 640 694.5C693.3 703 746.7 713 800 708.7C853.3 704.3 906.7 685.7 960 685.8C1013.3 686 1066.7 705 1120 712.8C1173.3 720.7 1226.7 717.3 1280 709C1333.3 700.7 1386.7 687.3 1440 686.8C1493.3 686.3 1546.7 698.7 1600 703.5C1653.3 708.3 1706.7 705.7 1760 713C1813.3 720.3 1866.7 737.7 1893.3 746.3L1920 755L1920 1001L1893.3 1001C1866.7 1001 1813.3 1001 1760 1001C1706.7 1001 1653.3 1001 1600 1001C1546.7 1001 1493.3 1001 1440 1001C1386.7 1001 1333.3 1001 1280 1001C1226.7 1001 1173.3 1001 1120 1001C1066.7 1001 1013.3 1001 960 1001C906.7 1001 853.3 1001 800 1001C746.7 1001 693.3 1001 640 1001C586.7 1001 533.3 1001 480 1001C426.7 1001 373.3 1001 320 1001C266.7 1001 213.3 1001 160 1001C106.7 1001 53.3 1001 26.7 1001L0 1001Z" fill="#ee5d67"></path><path d="M0 811L26.7 808.7C53.3 806.3 106.7 801.7 160 792C213.3 782.3 266.7 767.7 320 763.3C373.3 759 426.7 765 480 757.3C533.3 749.7 586.7 728.3 640 717.3C693.3 706.3 746.7 705.7 800 718.8C853.3 732 906.7 759 960 777C1013.3 795 1066.7 804 1120 797.5C1173.3 791 1226.7 769 1280 759.7C1333.3 750.3 1386.7 753.7 1440 766.2C1493.3 778.7 1546.7 800.3 1600 796.5C1653.3 792.7 1706.7 763.3 1760 746.7C1813.3 730 1866.7 726 1893.3 724L1920 722L1920 1001L1893.3 1001C1866.7 1001 1813.3 1001 1760 1001C1706.7 1001 1653.3 1001 1600 1001C1546.7 1001 1493.3 1001 1440 1001C1386.7 1001 1333.3 1001 1280 1001C1226.7 1001 1173.3 1001 1120 1001C1066.7 1001 1013.3 1001 960 1001C906.7 1001 853.3 1001 800 1001C746.7 1001 693.3 1001 640 1001C586.7 1001 533.3 1001 480 1001C426.7 1001 373.3 1001 320 1001C266.7 1001 213.3 1001 160 1001C106.7 1001 53.3 1001 26.7 1001L0 1001Z" fill="#ea5667"></path><path d="M0 748L26.7 755C53.3 762 106.7 776 160 776.7C213.3 777.3 266.7 764.7 320 770.8C373.3 777 426.7 802 480 816.8C533.3 831.7 586.7 836.3 640 835.7C693.3 835 746.7 829 800 812.8C853.3 796.7 906.7 770.3 960 767.8C1013.3 765.3 1066.7 786.7 1120 801C1173.3 815.3 1226.7 822.7 1280 819.2C1333.3 815.7 1386.7 801.3 1440 799C1493.3 796.7 1546.7 806.3 1600 811.7C1653.3 817 1706.7 818 1760 807C1813.3 796 1866.7 773 1893.3 761.5L1920 750L1920 1001L1893.3 1001C1866.7 1001 1813.3 1001 1760 1001C1706.7 1001 1653.3 1001 1600 1001C1546.7 1001 1493.3 1001 1440 1001C1386.7 1001 1333.3 1001 1280 1001C1226.7 1001 1173.3 1001 1120 1001C1066.7 1001 1013.3 1001 960 1001C906.7 1001 853.3 1001 800 1001C746.7 1001 693.3 1001 640 1001C586.7 1001 533.3 1001 480 1001C426.7 1001 373.3 1001 320 1001C266.7 1001 213.3 1001 160 1001C106.7 1001 53.3 1001 26.7 1001L0 1001Z" fill="#e54f67"></path><path d="M0 782L26.7 786.5C53.3 791 106.7 800 160 802.3C213.3 804.7 266.7 800.3 320 800C373.3 799.7 426.7 803.3 480 811.7C533.3 820 586.7 833 640 832.2C693.3 831.3 746.7 816.7 800 809.7C853.3 802.7 906.7 803.3 960 798.2C1013.3 793 1066.7 782 1120 790.7C1173.3 799.3 1226.7 827.7 1280 840.8C1333.3 854 1386.7 852 1440 844C1493.3 836 1546.7 822 1600 809.5C1653.3 797 1706.7 786 1760 795.8C1813.3 805.7 1866.7 836.3 1893.3 851.7L1920 867L1920 1001L1893.3 1001C1866.7 1001 1813.3 1001 1760 1001C1706.7 1001 1653.3 1001 1600 1001C1546.7 1001 1493.3 1001 1440 1001C1386.7 1001 1333.3 1001 1280 1001C1226.7 1001 1173.3 1001 1120 1001C1066.7 1001 1013.3 1001 960 1001C906.7 1001 853.3 1001 800 1001C746.7 1001 693.3 1001 640 1001C586.7 1001 533.3 1001 480 1001C426.7 1001 373.3 1001 320 1001C266.7 1001 213.3 1001 160 1001C106.7 1001 53.3 1001 26.7 1001L0 1001Z" fill="#e14867"></path><path d="M0 846L26.7 838.5C53.3 831 106.7 816 160 810.8C213.3 805.7 266.7 810.3 320 815.3C373.3 820.3 426.7 825.7 480 826.7C533.3 827.7 586.7 824.3 640 831C693.3 837.7 746.7 854.3 800 855.3C853.3 856.3 906.7 841.7 960 839.5C1013.3 837.3 1066.7 847.7 1120 850C1173.3 852.3 1226.7 846.7 1280 842.2C1333.3 837.7 1386.7 834.3 1440 832.5C1493.3 830.7 1546.7 830.3 1600 831.2C1653.3 832 1706.7 834 1760 842.3C1813.3 850.7 1866.7 865.3 1893.3 872.7L1920 880L1920 1001L1893.3 1001C1866.7 1001 1813.3 1001 1760 1001C1706.7 1001 1653.3 1001 1600 1001C1546.7 1001 1493.3 1001 1440 1001C1386.7 1001 1333.3 1001 1280 1001C1226.7 1001 1173.3 1001 1120 1001C1066.7 1001 1013.3 1001 960 1001C906.7 1001 853.3 1001 800 1001C746.7 1001 693.3 1001 640 1001C586.7 1001 533.3 1001 480 1001C426.7 1001 373.3 1001 320 1001C266.7 1001 213.3 1001 160 1001C106.7 1001 53.3 1001 26.7 1001L0 1001Z" fill="#dc4167"></path><path d="M0 853L26.7 861.7C53.3 870.3 106.7 887.7 160 897.7C213.3 907.7 266.7 910.3 320 910C373.3 909.7 426.7 906.3 480 897.3C533.3 888.3 586.7 873.7 640 867.7C693.3 861.7 746.7 864.3 800 870C853.3 875.7 906.7 884.3 960 880.3C1013.3 876.3 1066.7 859.7 1120 862.2C1173.3 864.7 1226.7 886.3 1280 891.3C1333.3 896.3 1386.7 884.7 1440 881.5C1493.3 878.3 1546.7 883.7 1600 887.2C1653.3 890.7 1706.7 892.3 1760 893.8C1813.3 895.3 1866.7 896.7 1893.3 897.3L1920 898L1920 1001L1893.3 1001C1866.7 1001 1813.3 1001 1760 1001C1706.7 1001 1653.3 1001 1600 1001C1546.7 1001 1493.3 1001 1440 1001C1386.7 1001 1333.3 1001 1280 1001C1226.7 1001 1173.3 1001 1120 1001C1066.7 1001 1013.3 1001 960 1001C906.7 1001 853.3 1001 800 1001C746.7 1001 693.3 1001 640 1001C586.7 1001 533.3 1001 480 1001C426.7 1001 373.3 1001 320 1001C266.7 1001 213.3 1001 160 1001C106.7 1001 53.3 1001 26.7 1001L0 1001Z" fill="#d73a67"></path><path d="M0 912L26.7 909.2C53.3 906.3 106.7 900.7 160 900.2C213.3 899.7 266.7 904.3 320 904.2C373.3 904 426.7 899 480 901.2C533.3 903.3 586.7 912.7 640 919.5C693.3 926.3 746.7 930.7 800 924.5C853.3 918.3 906.7 901.7 960 892.3C1013.3 883 1066.7 881 1120 887.7C1173.3 894.3 1226.7 909.7 1280 912.7C1333.3 915.7 1386.7 906.3 1440 908C1493.3 909.7 1546.7 922.3 1600 922.2C1653.3 922 1706.7 909 1760 909.3C1813.3 909.7 1866.7 923.3 1893.3 930.2L1920 937L1920 1001L1893.3 1001C1866.7 1001 1813.3 1001 1760 1001C1706.7 1001 1653.3 1001 1600 1001C1546.7 1001 1493.3 1001 1440 1001C1386.7 1001 1333.3 1001 1280 1001C1226.7 1001 1173.3 1001 1120 1001C1066.7 1001 1013.3 1001 960 1001C906.7 1001 853.3 1001 800 1001C746.7 1001 693.3 1001 640 1001C586.7 1001 533.3 1001 480 1001C426.7 1001 373.3 1001 320 1001C266.7 1001 213.3 1001 160 1001C106.7 1001 53.3 1001 26.7 1001L0 1001Z" fill="#d13367"></path><path d="M0 907L26.7 906.5C53.3 906 106.7 905 160 910.5C213.3 916 266.7 928 320 936.8C373.3 945.7 426.7 951.3 480 951.7C533.3 952 586.7 947 640 939.8C693.3 932.7 746.7 923.3 800 920.3C853.3 917.3 906.7 920.7 960 919.8C1013.3 919 1066.7 914 1120 912.2C1173.3 910.3 1226.7 911.7 1280 917.5C1333.3 923.3 1386.7 933.7 1440 937.7C1493.3 941.7 1546.7 939.3 1600 934C1653.3 928.7 1706.7 920.3 1760 922.7C1813.3 925 1866.7 938 1893.3 944.5L1920 951L1920 1001L1893.3 1001C1866.7 1001 1813.3 1001 1760 1001C1706.7 1001 1653.3 1001 1600 1001C1546.7 1001 1493.3 1001 1440 1001C1386.7 1001 1333.3 1001 1280 1001C1226.7 1001 1173.3 1001 1120 1001C1066.7 1001 1013.3 1001 960 1001C906.7 1001 853.3 1001 800 1001C746.7 1001 693.3 1001 640 1001C586.7 1001 533.3 1001 480 1001C426.7 1001 373.3 1001 320 1001C266.7 1001 213.3 1001 160 1001C106.7 1001 53.3 1001 26.7 1001L0 1001Z" fill="#cc2b68"></path><path d="M0 980L26.7 976C53.3 972 106.7 964 160 962.2C213.3 960.3 266.7 964.7 320 965C373.3 965.3 426.7 961.7 480 959.3C533.3 957 586.7 956 640 958.7C693.3 961.3 746.7 967.7 800 970.8C853.3 974 906.7 974 960 969.7C1013.3 965.3 1066.7 956.7 1120 951.2C1173.3 945.7 1226.7 943.3 1280 946.7C1333.3 950 1386.7 959 1440 965.5C1493.3 972 1546.7 976 1600 974C1653.3 972 1706.7 964 1760 961.2C1813.3 958.3 1866.7 960.7 1893.3 961.8L1920 963L1920 1001L1893.3 1001C1866.7 1001 1813.3 1001 1760 1001C1706.7 1001 1653.3 1001 1600 1001C1546.7 1001 1493.3 1001 1440 1001C1386.7 1001 1333.3 1001 1280 1001C1226.7 1001 1173.3 1001 1120 1001C1066.7 1001 1013.3 1001 960 1001C906.7 1001 853.3 1001 800 1001C746.7 1001 693.3 1001 640 1001C586.7 1001 533.3 1001 480 1001C426.7 1001 373.3 1001 320 1001C266.7 1001 213.3 1001 160 1001C106.7 1001 53.3 1001 26.7 1001L0 1001Z" fill="#c62368"></path></svg>