<svg xmlns="http://www.w3.org/2000/svg" version="1.1" xmlns:xlink="http://www.w3.org/1999/xlink" xmlns:svgjs="http://svgjs.dev/svgjs" width="1440" height="560" preserveAspectRatio="none" viewBox="0 0 1440 560"><g mask="url(&quot;#SvgjsMask1061&quot;)" fill="none"><rect width="1440" height="560" x="0" y="0" fill="url(&quot;#SvgjsLinearGradient1062&quot;)"></rect><path d="M-107.97 503.23L-107.97 503.23" stroke="rgba(255, 149, 149, 1)" stroke-width="1.5"></path><path d="M-107.97 503.23L-63.35 680.25" stroke="rgba(255, 149, 149, 1)" stroke-width="1.5"></path><path d="M-107.97 503.23L96.14 522.27" stroke="rgba(255, 149, 149, 1)" stroke-width="1.5"></path><path d="M-107.97 503.23L98.2 354.68" stroke="rgba(255, 149, 149, 1)" stroke-width="1.5"></path><path d="M-107.97 503.23L103.64 698.71" stroke="rgba(255, 149, 149, 1)" stroke-width="1.5"></path><path d="M-63.35 680.25L-63.35 680.25" stroke="rgba(255, 149, 149, 1)" stroke-width="1.5"></path><path d="M-63.35 680.25L103.64 698.71" stroke="rgba(255, 149, 149, 1)" stroke-width="1.5"></path><path d="M98.2 354.68L98.2 354.68" stroke="rgba(255, 149, 149, 1)" stroke-width="1.5"></path><path d="M98.2 354.68L236.82 393.96" stroke="rgba(255, 149, 149, 1)" stroke-width="1.5"></path><path d="M96.14 522.27L96.14 522.27" stroke="rgba(255, 149, 149, 1)" stroke-width="1.5"></path><path d="M96.14 522.27L241.88 555.95" stroke="rgba(255, 149, 149, 1)" stroke-width="1.5"></path><path d="M96.14 522.27L98.2 354.68" stroke="rgba(255, 149, 149, 1)" stroke-width="1.5"></path><path d="M96.14 522.27L103.64 698.71" stroke="rgba(255, 149, 149, 1)" stroke-width="1.5"></path><path d="M96.14 522.27L236.82 393.96" stroke="rgba(255, 149, 149, 1)" stroke-width="1.5"></path><path d="M96.14 522.27L256.13 644.44" stroke="rgba(255, 149, 149, 1)" stroke-width="1.5"></path><path d="M103.64 698.71L103.64 698.71" stroke="rgba(255, 149, 149, 1)" stroke-width="1.5"></path><path d="M103.64 698.71L256.13 644.44" stroke="rgba(255, 149, 149, 1)" stroke-width="1.5"></path><path d="M103.64 698.71L241.88 555.95" stroke="rgba(255, 149, 149, 1)" stroke-width="1.5"></path><path d="M236.82 393.96L236.82 393.96" stroke="rgba(255, 149, 149, 1)" stroke-width="1.5"></path><path d="M236.82 393.96L343.57 509.54" stroke="rgba(255, 149, 149, 1)" stroke-width="1.5"></path><path d="M241.88 555.95L241.88 555.95" stroke="rgba(255, 149, 149, 1)" stroke-width="1.5"></path><path d="M241.88 555.95L256.13 644.44" stroke="rgba(255, 149, 149, 1)" stroke-width="1.5"></path><path d="M241.88 555.95L343.57 509.54" stroke="rgba(255, 149, 149, 1)" stroke-width="1.5"></path><path d="M241.88 555.95L236.82 393.96" stroke="rgba(255, 149, 149, 1)" stroke-width="1.5"></path><path d="M256.13 644.44L256.13 644.44" stroke="rgba(255, 149, 149, 1)" stroke-width="1.5"></path><path d="M256.13 644.44L407.81 696.19" stroke="rgba(255, 149, 149, 1)" stroke-width="1.5"></path><path d="M256.13 644.44L343.57 509.54" stroke="rgba(255, 149, 149, 1)" stroke-width="1.5"></path><path d="M398.6 372.14L398.6 372.14" stroke="rgba(255, 149, 149, 1)" stroke-width="1.5"></path><path d="M398.6 372.14L518.59 344.42" stroke="rgba(255, 149, 149, 1)" stroke-width="1.5"></path><path d="M398.6 372.14L343.57 509.54" stroke="rgba(255, 149, 149, 1)" stroke-width="1.5"></path><path d="M398.6 372.14L236.82 393.96" stroke="rgba(255, 149, 149, 1)" stroke-width="1.5"></path><path d="M398.6 372.14L513.97 548.07" stroke="rgba(255, 149, 149, 1)" stroke-width="1.5"></path><path d="M398.6 372.14L241.88 555.95" stroke="rgba(255, 149, 149, 1)" stroke-width="1.5"></path><path d="M343.57 509.54L343.57 509.54" stroke="rgba(255, 149, 149, 1)" stroke-width="1.5"></path><path d="M407.81 696.19L407.81 696.19" stroke="rgba(255, 149, 149, 1)" stroke-width="1.5"></path><path d="M407.81 696.19L495.3 690.44" stroke="rgba(255, 149, 149, 1)" stroke-width="1.5"></path><path d="M518.59 344.42L518.59 344.42" stroke="rgba(255, 149, 149, 1)" stroke-width="1.5"></path><path d="M518.59 344.42L679.76 397.7" stroke="rgba(255, 149, 149, 1)" stroke-width="1.5"></path><path d="M518.59 344.42L513.97 548.07" stroke="rgba(255, 149, 149, 1)" stroke-width="1.5"></path><path d="M518.59 344.42L696.48 220.19" stroke="rgba(255, 149, 149, 1)" stroke-width="1.5"></path><path d="M518.59 344.42L708.24 489.98" stroke="rgba(255, 149, 149, 1)" stroke-width="1.5"></path><path d="M513.97 548.07L513.97 548.07" stroke="rgba(255, 149, 149, 1)" stroke-width="1.5"></path><path d="M513.97 548.07L495.3 690.44" stroke="rgba(255, 149, 149, 1)" stroke-width="1.5"></path><path d="M513.97 548.07L343.57 509.54" stroke="rgba(255, 149, 149, 1)" stroke-width="1.5"></path><path d="M513.97 548.07L407.81 696.19" stroke="rgba(255, 149, 149, 1)" stroke-width="1.5"></path><path d="M513.97 548.07L708.24 489.98" stroke="rgba(255, 149, 149, 1)" stroke-width="1.5"></path><path d="M513.97 548.07L687.05 666.24" stroke="rgba(255, 149, 149, 1)" stroke-width="1.5"></path><path d="M495.3 690.44L495.3 690.44" stroke="rgba(255, 149, 149, 1)" stroke-width="1.5"></path><path d="M495.3 690.44L687.05 666.24" stroke="rgba(255, 149, 149, 1)" stroke-width="1.5"></path><path d="M495.3 690.44L343.57 509.54" stroke="rgba(255, 149, 149, 1)" stroke-width="1.5"></path><path d="M495.3 690.44L256.13 644.44" stroke="rgba(255, 149, 149, 1)" stroke-width="1.5"></path><path d="M696.48 220.19L696.48 220.19" stroke="rgba(255, 149, 149, 1)" stroke-width="1.5"></path><path d="M696.48 220.19L798.09 199.08" stroke="rgba(255, 149, 149, 1)" stroke-width="1.5"></path><path d="M696.48 220.19L679.76 397.7" stroke="rgba(255, 149, 149, 1)" stroke-width="1.5"></path><path d="M696.48 220.19L812.7 374.36" stroke="rgba(255, 149, 149, 1)" stroke-width="1.5"></path><path d="M696.48 220.19L855.53 75.42" stroke="rgba(255, 149, 149, 1)" stroke-width="1.5"></path><path d="M679.76 397.7L679.76 397.7" stroke="rgba(255, 149, 149, 1)" stroke-width="1.5"></path><path d="M679.76 397.7L708.24 489.98" stroke="rgba(255, 149, 149, 1)" stroke-width="1.5"></path><path d="M679.76 397.7L812.7 374.36" stroke="rgba(255, 149, 149, 1)" stroke-width="1.5"></path><path d="M708.24 489.98L708.24 489.98" stroke="rgba(255, 149, 149, 1)" stroke-width="1.5"></path><path d="M708.24 489.98L836.86 528.53" stroke="rgba(255, 149, 149, 1)" stroke-width="1.5"></path><path d="M708.24 489.98L812.7 374.36" stroke="rgba(255, 149, 149, 1)" stroke-width="1.5"></path><path d="M708.24 489.98L687.05 666.24" stroke="rgba(255, 149, 149, 1)" stroke-width="1.5"></path><path d="M708.24 489.98L799.16 664.36" stroke="rgba(255, 149, 149, 1)" stroke-width="1.5"></path><path d="M687.05 666.24L687.05 666.24" stroke="rgba(255, 149, 149, 1)" stroke-width="1.5"></path><path d="M687.05 666.24L799.16 664.36" stroke="rgba(255, 149, 149, 1)" stroke-width="1.5"></path><path d="M855.53 75.42L855.53 75.42" stroke="rgba(255, 149, 149, 1)" stroke-width="1.5"></path><path d="M855.53 75.42L798.09 199.08" stroke="rgba(255, 149, 149, 1)" stroke-width="1.5"></path><path d="M855.53 75.42L1003.94 53.66" stroke="rgba(255, 149, 149, 1)" stroke-width="1.5"></path><path d="M798.09 199.08L798.09 199.08" stroke="rgba(255, 149, 149, 1)" stroke-width="1.5"></path><path d="M812.7 374.36L812.7 374.36" stroke="rgba(255, 149, 149, 1)" stroke-width="1.5"></path><path d="M812.7 374.36L836.86 528.53" stroke="rgba(255, 149, 149, 1)" stroke-width="1.5"></path><path d="M812.7 374.36L978.29 390.6" stroke="rgba(255, 149, 149, 1)" stroke-width="1.5"></path><path d="M836.86 528.53L836.86 528.53" stroke="rgba(255, 149, 149, 1)" stroke-width="1.5"></path><path d="M836.86 528.53L799.16 664.36" stroke="rgba(255, 149, 149, 1)" stroke-width="1.5"></path><path d="M799.16 664.36L799.16 664.36" stroke="rgba(255, 149, 149, 1)" stroke-width="1.5"></path><path d="M799.16 664.36L971.13 699.47" stroke="rgba(255, 149, 149, 1)" stroke-width="1.5"></path><path d="M984.66 -73.01L984.66 -73.01" stroke="rgba(255, 149, 149, 1)" stroke-width="1.5"></path><path d="M984.66 -73.01L1003.94 53.66" stroke="rgba(255, 149, 149, 1)" stroke-width="1.5"></path><path d="M984.66 -73.01L1114.4 -60.99" stroke="rgba(255, 149, 149, 1)" stroke-width="1.5"></path><path d="M984.66 -73.01L855.53 75.42" stroke="rgba(255, 149, 149, 1)" stroke-width="1.5"></path><path d="M984.66 -73.01L1162.16 49.18" stroke="rgba(255, 149, 149, 1)" stroke-width="1.5"></path><path d="M984.66 -73.01L1118.65 191.7" stroke="rgba(255, 149, 149, 1)" stroke-width="1.5"></path><path d="M1003.94 53.66L1003.94 53.66" stroke="rgba(255, 149, 149, 1)" stroke-width="1.5"></path><path d="M1003.94 53.66L1162.16 49.18" stroke="rgba(255, 149, 149, 1)" stroke-width="1.5"></path><path d="M1003.94 53.66L1114.4 -60.99" stroke="rgba(255, 149, 149, 1)" stroke-width="1.5"></path><path d="M1003.94 53.66L1118.65 191.7" stroke="rgba(255, 149, 149, 1)" stroke-width="1.5"></path><path d="M940.19 260.44L940.19 260.44" stroke="rgba(255, 149, 149, 1)" stroke-width="1.5"></path><path d="M940.19 260.44L978.29 390.6" stroke="rgba(255, 149, 149, 1)" stroke-width="1.5"></path><path d="M940.19 260.44L798.09 199.08" stroke="rgba(255, 149, 149, 1)" stroke-width="1.5"></path><path d="M940.19 260.44L812.7 374.36" stroke="rgba(255, 149, 149, 1)" stroke-width="1.5"></path><path d="M940.19 260.44L1118.65 191.7" stroke="rgba(255, 149, 149, 1)" stroke-width="1.5"></path><path d="M940.19 260.44L855.53 75.42" stroke="rgba(255, 149, 149, 1)" stroke-width="1.5"></path><path d="M940.19 260.44L1003.94 53.66" stroke="rgba(255, 149, 149, 1)" stroke-width="1.5"></path><path d="M978.29 390.6L978.29 390.6" stroke="rgba(255, 149, 149, 1)" stroke-width="1.5"></path><path d="M978.29 390.6L1000.93 518.62" stroke="rgba(255, 149, 149, 1)" stroke-width="1.5"></path><path d="M1000.93 518.62L1000.93 518.62" stroke="rgba(255, 149, 149, 1)" stroke-width="1.5"></path><path d="M1000.93 518.62L1155.81 535.76" stroke="rgba(255, 149, 149, 1)" stroke-width="1.5"></path><path d="M1000.93 518.62L836.86 528.53" stroke="rgba(255, 149, 149, 1)" stroke-width="1.5"></path><path d="M1000.93 518.62L971.13 699.47" stroke="rgba(255, 149, 149, 1)" stroke-width="1.5"></path><path d="M1000.93 518.62L1091.47 712.44" stroke="rgba(255, 149, 149, 1)" stroke-width="1.5"></path><path d="M971.13 699.47L971.13 699.47" stroke="rgba(255, 149, 149, 1)" stroke-width="1.5"></path><path d="M971.13 699.47L1091.47 712.44" stroke="rgba(255, 149, 149, 1)" stroke-width="1.5"></path><path d="M971.13 699.47L836.86 528.53" stroke="rgba(255, 149, 149, 1)" stroke-width="1.5"></path><path d="M1114.4 -60.99L1114.4 -60.99" stroke="rgba(255, 149, 149, 1)" stroke-width="1.5"></path><path d="M1114.4 -60.99L1162.16 49.18" stroke="rgba(255, 149, 149, 1)" stroke-width="1.5"></path><path d="M1162.16 49.18L1162.16 49.18" stroke="rgba(255, 149, 149, 1)" stroke-width="1.5"></path><path d="M1162.16 49.18L1118.65 191.7" stroke="rgba(255, 149, 149, 1)" stroke-width="1.5"></path><path d="M1162.16 49.18L1302.94 -101.13" stroke="rgba(255, 149, 149, 1)" stroke-width="1.5"></path><path d="M1162.16 49.18L1270.53 260.06" stroke="rgba(255, 149, 149, 1)" stroke-width="1.5"></path><path d="M1118.65 191.7L1118.65 191.7" stroke="rgba(255, 149, 149, 1)" stroke-width="1.5"></path><path d="M1118.65 191.7L1270.53 260.06" stroke="rgba(255, 149, 149, 1)" stroke-width="1.5"></path><path d="M1118.65 191.7L1161.45 361.13" stroke="rgba(255, 149, 149, 1)" stroke-width="1.5"></path><path d="M1161.45 361.13L1161.45 361.13" stroke="rgba(255, 149, 149, 1)" stroke-width="1.5"></path><path d="M1161.45 361.13L1249.86 390.59" stroke="rgba(255, 149, 149, 1)" stroke-width="1.5"></path><path d="M1161.45 361.13L1270.53 260.06" stroke="rgba(255, 149, 149, 1)" stroke-width="1.5"></path><path d="M1155.81 535.76L1155.81 535.76" stroke="rgba(255, 149, 149, 1)" stroke-width="1.5"></path><path d="M1155.81 535.76L1312.19 553.42" stroke="rgba(255, 149, 149, 1)" stroke-width="1.5"></path><path d="M1155.81 535.76L1249.86 390.59" stroke="rgba(255, 149, 149, 1)" stroke-width="1.5"></path><path d="M1155.81 535.76L1161.45 361.13" stroke="rgba(255, 149, 149, 1)" stroke-width="1.5"></path><path d="M1091.47 712.44L1091.47 712.44" stroke="rgba(255, 149, 149, 1)" stroke-width="1.5"></path><path d="M1091.47 712.44L1155.81 535.76" stroke="rgba(255, 149, 149, 1)" stroke-width="1.5"></path><path d="M1091.47 712.44L1281.04 702.19" stroke="rgba(255, 149, 149, 1)" stroke-width="1.5"></path><path d="M1302.94 -101.13L1302.94 -101.13" stroke="rgba(255, 149, 149, 1)" stroke-width="1.5"></path><path d="M1302.94 -101.13L1402.94 -49.48" stroke="rgba(255, 149, 149, 1)" stroke-width="1.5"></path><path d="M1302.94 -101.13L1114.4 -60.99" stroke="rgba(255, 149, 149, 1)" stroke-width="1.5"></path><path d="M1302.94 -101.13L1410.14 74.45" stroke="rgba(255, 149, 149, 1)" stroke-width="1.5"></path><path d="M1302.94 -101.13L1565.68 -104.92" stroke="rgba(255, 149, 149, 1)" stroke-width="1.5"></path><path d="M1302.94 -101.13L984.66 -73.01" stroke="rgba(255, 149, 149, 1)" stroke-width="1.5"></path><path d="M1270.53 260.06L1270.53 260.06" stroke="rgba(255, 149, 149, 1)" stroke-width="1.5"></path><path d="M1270.53 260.06L1249.86 390.59" stroke="rgba(255, 149, 149, 1)" stroke-width="1.5"></path><path d="M1270.53 260.06L1429.61 196.41" stroke="rgba(255, 149, 149, 1)" stroke-width="1.5"></path><path d="M1270.53 260.06L1410.14 74.45" stroke="rgba(255, 149, 149, 1)" stroke-width="1.5"></path><path d="M1249.86 390.59L1249.86 390.59" stroke="rgba(255, 149, 149, 1)" stroke-width="1.5"></path><path d="M1249.86 390.59L1312.19 553.42" stroke="rgba(255, 149, 149, 1)" stroke-width="1.5"></path><path d="M1249.86 390.59L1430.78 490.23" stroke="rgba(255, 149, 149, 1)" stroke-width="1.5"></path><path d="M1312.19 553.42L1312.19 553.42" stroke="rgba(255, 149, 149, 1)" stroke-width="1.5"></path><path d="M1312.19 553.42L1430.78 490.23" stroke="rgba(255, 149, 149, 1)" stroke-width="1.5"></path><path d="M1312.19 553.42L1281.04 702.19" stroke="rgba(255, 149, 149, 1)" stroke-width="1.5"></path><path d="M1281.04 702.19L1281.04 702.19" stroke="rgba(255, 149, 149, 1)" stroke-width="1.5"></path><path d="M1281.04 702.19L1460.29 692.31" stroke="rgba(255, 149, 149, 1)" stroke-width="1.5"></path><path d="M1281.04 702.19L1155.81 535.76" stroke="rgba(255, 149, 149, 1)" stroke-width="1.5"></path><path d="M1402.94 -49.48L1402.94 -49.48" stroke="rgba(255, 149, 149, 1)" stroke-width="1.5"></path><path d="M1402.94 -49.48L1410.14 74.45" stroke="rgba(255, 149, 149, 1)" stroke-width="1.5"></path><path d="M1402.94 -49.48L1565.68 -104.92" stroke="rgba(255, 149, 149, 1)" stroke-width="1.5"></path><path d="M1410.14 74.45L1410.14 74.45" stroke="rgba(255, 149, 149, 1)" stroke-width="1.5"></path><path d="M1410.14 74.45L1429.61 196.41" stroke="rgba(255, 149, 149, 1)" stroke-width="1.5"></path><path d="M1410.14 74.45L1605.49 72.02" stroke="rgba(255, 149, 149, 1)" stroke-width="1.5"></path><path d="M1410.14 74.45L1565.68 -104.92" stroke="rgba(255, 149, 149, 1)" stroke-width="1.5"></path><path d="M1429.61 196.41L1429.61 196.41" stroke="rgba(255, 149, 149, 1)" stroke-width="1.5"></path><path d="M1430.78 490.23L1430.78 490.23" stroke="rgba(255, 149, 149, 1)" stroke-width="1.5"></path><path d="M1430.78 490.23L1546.41 553.86" stroke="rgba(255, 149, 149, 1)" stroke-width="1.5"></path><path d="M1460.29 692.31L1460.29 692.31" stroke="rgba(255, 149, 149, 1)" stroke-width="1.5"></path><path d="M1460.29 692.31L1542.54 654" stroke="rgba(255, 149, 149, 1)" stroke-width="1.5"></path><path d="M1460.29 692.31L1546.41 553.86" stroke="rgba(255, 149, 149, 1)" stroke-width="1.5"></path><path d="M1460.29 692.31L1312.19 553.42" stroke="rgba(255, 149, 149, 1)" stroke-width="1.5"></path><path d="M1565.68 -104.92L1565.68 -104.92" stroke="rgba(255, 149, 149, 1)" stroke-width="1.5"></path><path d="M1565.68 -104.92L1605.49 72.02" stroke="rgba(255, 149, 149, 1)" stroke-width="1.5"></path><path d="M1605.49 72.02L1605.49 72.02" stroke="rgba(255, 149, 149, 1)" stroke-width="1.5"></path><path d="M1605.49 72.02L1600.19 230.19" stroke="rgba(255, 149, 149, 1)" stroke-width="1.5"></path><path d="M1600.19 230.19L1600.19 230.19" stroke="rgba(255, 149, 149, 1)" stroke-width="1.5"></path><path d="M1600.19 230.19L1429.61 196.41" stroke="rgba(255, 149, 149, 1)" stroke-width="1.5"></path><path d="M1600.19 230.19L1582.34 408.19" stroke="rgba(255, 149, 149, 1)" stroke-width="1.5"></path><path d="M1600.19 230.19L1410.14 74.45" stroke="rgba(255, 149, 149, 1)" stroke-width="1.5"></path><path d="M1600.19 230.19L1430.78 490.23" stroke="rgba(255, 149, 149, 1)" stroke-width="1.5"></path><path d="M1582.34 408.19L1582.34 408.19" stroke="rgba(255, 149, 149, 1)" stroke-width="1.5"></path><path d="M1582.34 408.19L1546.41 553.86" stroke="rgba(255, 149, 149, 1)" stroke-width="1.5"></path><path d="M1582.34 408.19L1430.78 490.23" stroke="rgba(255, 149, 149, 1)" stroke-width="1.5"></path><path d="M1546.41 553.86L1546.41 553.86" stroke="rgba(255, 149, 149, 1)" stroke-width="1.5"></path><path d="M1546.41 553.86L1542.54 654" stroke="rgba(255, 149, 149, 1)" stroke-width="1.5"></path><path d="M1546.41 553.86L1312.19 553.42" stroke="rgba(255, 149, 149, 1)" stroke-width="1.5"></path><path d="M1546.41 553.86L1281.04 702.19" stroke="rgba(255, 149, 149, 1)" stroke-width="1.5"></path><path d="M1542.54 654L1542.54 654" stroke="rgba(255, 149, 149, 1)" stroke-width="1.5"></path><path d="M1542.54 654L1430.78 490.23" stroke="rgba(255, 149, 149, 1)" stroke-width="1.5"></path><path d="M1542.54 654L1582.34 408.19" stroke="rgba(255, 149, 149, 1)" stroke-width="1.5"></path><circle r="5" cx="-107.97" cy="503.23" fill="rgba(255, 149, 149, 1)"></circle><circle r="5" cx="-63.35" cy="680.25" fill="rgba(255, 149, 149, 1)"></circle><circle r="5" cx="98.2" cy="354.68" fill="rgba(255, 149, 149, 1)"></circle><circle r="5" cx="96.14" cy="522.27" fill="rgba(255, 149, 149, 1)"></circle><circle r="5" cx="103.64" cy="698.71" fill="rgba(255, 149, 149, 1)"></circle><circle r="5" cx="236.82" cy="393.96" fill="rgba(255, 149, 149, 1)"></circle><circle r="5" cx="241.88" cy="555.95" fill="rgba(255, 149, 149, 1)"></circle><circle r="5" cx="256.13" cy="644.44" fill="rgba(255, 149, 149, 1)"></circle><circle r="5" cx="398.6" cy="372.14" fill="rgba(255, 149, 149, 1)"></circle><circle r="5" cx="343.57" cy="509.54" fill="rgba(255, 149, 149, 1)"></circle><circle r="5" cx="407.81" cy="696.19" fill="rgba(255, 149, 149, 1)"></circle><circle r="5" cx="518.59" cy="344.42" fill="rgba(255, 149, 149, 1)"></circle><circle r="5" cx="513.97" cy="548.07" fill="rgba(255, 149, 149, 1)"></circle><circle r="5" cx="495.3" cy="690.44" fill="rgba(255, 149, 149, 1)"></circle><circle r="5" cx="696.48" cy="220.19" fill="rgba(255, 149, 149, 1)"></circle><circle r="5" cx="679.76" cy="397.7" fill="rgba(255, 149, 149, 1)"></circle><circle r="5" cx="708.24" cy="489.98" fill="rgba(255, 149, 149, 1)"></circle><circle r="5" cx="687.05" cy="666.24" fill="rgba(255, 149, 149, 1)"></circle><circle r="5" cx="855.53" cy="75.42" fill="rgba(255, 149, 149, 1)"></circle><circle r="5" cx="798.09" cy="199.08" fill="rgba(255, 149, 149, 1)"></circle><circle r="5" cx="812.7" cy="374.36" fill="rgba(255, 149, 149, 1)"></circle><circle r="5" cx="836.86" cy="528.53" fill="rgba(255, 149, 149, 1)"></circle><circle r="5" cx="799.16" cy="664.36" fill="rgba(255, 149, 149, 1)"></circle><circle r="5" cx="984.66" cy="-73.01" fill="rgba(255, 149, 149, 1)"></circle><circle r="5" cx="1003.94" cy="53.66" fill="rgba(255, 149, 149, 1)"></circle><circle r="5" cx="940.19" cy="260.44" fill="rgba(255, 149, 149, 1)"></circle><circle r="5" cx="978.29" cy="390.6" fill="rgba(255, 149, 149, 1)"></circle><circle r="5" cx="1000.93" cy="518.62" fill="rgba(255, 149, 149, 1)"></circle><circle r="5" cx="971.13" cy="699.47" fill="rgba(255, 149, 149, 1)"></circle><circle r="5" cx="1114.4" cy="-60.99" fill="rgba(255, 149, 149, 1)"></circle><circle r="5" cx="1162.16" cy="49.18" fill="rgba(255, 149, 149, 1)"></circle><circle r="5" cx="1118.65" cy="191.7" fill="rgba(255, 149, 149, 1)"></circle><circle r="5" cx="1161.45" cy="361.13" fill="rgba(255, 149, 149, 1)"></circle><circle r="5" cx="1155.81" cy="535.76" fill="rgba(255, 149, 149, 1)"></circle><circle r="5" cx="1091.47" cy="712.44" fill="rgba(255, 149, 149, 1)"></circle><circle r="5" cx="1302.94" cy="-101.13" fill="rgba(255, 149, 149, 1)"></circle><circle r="5" cx="1270.53" cy="260.06" fill="rgba(255, 149, 149, 1)"></circle><circle r="5" cx="1249.86" cy="390.59" fill="rgba(255, 149, 149, 1)"></circle><circle r="5" cx="1312.19" cy="553.42" fill="rgba(255, 149, 149, 1)"></circle><circle r="5" cx="1281.04" cy="702.19" fill="rgba(255, 149, 149, 1)"></circle><circle r="5" cx="1402.94" cy="-49.48" fill="rgba(255, 149, 149, 1)"></circle><circle r="5" cx="1410.14" cy="74.45" fill="rgba(255, 149, 149, 1)"></circle><circle r="5" cx="1429.61" cy="196.41" fill="rgba(255, 149, 149, 1)"></circle><circle r="5" cx="1430.78" cy="490.23" fill="rgba(255, 149, 149, 1)"></circle><circle r="5" cx="1460.29" cy="692.31" fill="rgba(255, 149, 149, 1)"></circle><circle r="5" cx="1565.68" cy="-104.92" fill="rgba(255, 149, 149, 1)"></circle><circle r="5" cx="1605.49" cy="72.02" fill="rgba(255, 149, 149, 1)"></circle><circle r="5" cx="1600.19" cy="230.19" fill="rgba(255, 149, 149, 1)"></circle><circle r="5" cx="1582.34" cy="408.19" fill="rgba(255, 149, 149, 1)"></circle><circle r="5" cx="1546.41" cy="553.86" fill="rgba(255, 149, 149, 1)"></circle><circle r="5" cx="1542.54" cy="654" fill="rgba(255, 149, 149, 1)"></circle><path d="M-59.57 543.83L-59.57 543.83" stroke="hsl(4.100000000000023, 93.6%, 90.2%)" stroke-width="1.5"></path><path d="M-59.57 543.83L54.03 511.59" stroke="hsl(4.100000000000023, 93.6%, 90.2%)" stroke-width="1.5"></path><path d="M-59.57 543.83L-91.06 687.33" stroke="hsl(4.100000000000023, 93.6%, 90.2%)" stroke-width="1.5"></path><path d="M-59.57 543.83L82.98 670.32" stroke="hsl(4.100000000000023, 93.6%, 90.2%)" stroke-width="1.5"></path><path d="M-59.57 543.83L226.93 557.88" stroke="hsl(4.100000000000023, 93.6%, 90.2%)" stroke-width="1.5"></path><path d="M-59.57 543.83L219.26 662.38" stroke="hsl(4.100000000000023, 93.6%, 90.2%)" stroke-width="1.5"></path><path d="M219.26 662.38L219.26 662.38" stroke="hsl(4.100000000000023, 93.6%, 90.2%)" stroke-width="1.5"></path><path d="M219.26 662.38L226.93 557.88" stroke="hsl(4.100000000000023, 93.6%, 90.2%)" stroke-width="1.5"></path><path d="M219.26 662.38L82.98 670.32" stroke="hsl(4.100000000000023, 93.6%, 90.2%)" stroke-width="1.5"></path><path d="M219.26 662.38L365.48 678.16" stroke="hsl(4.100000000000023, 93.6%, 90.2%)" stroke-width="1.5"></path><path d="M219.26 662.38L363.26 498.7" stroke="hsl(4.100000000000023, 93.6%, 90.2%)" stroke-width="1.5"></path><path d="M219.26 662.38L54.03 511.59" stroke="hsl(4.100000000000023, 93.6%, 90.2%)" stroke-width="1.5"></path><path d="M363.26 498.7L363.26 498.7" stroke="hsl(4.100000000000023, 93.6%, 90.2%)" stroke-width="1.5"></path><path d="M363.26 498.7L226.93 557.88" stroke="hsl(4.100000000000023, 93.6%, 90.2%)" stroke-width="1.5"></path><path d="M363.26 498.7L365.48 678.16" stroke="hsl(4.100000000000023, 93.6%, 90.2%)" stroke-width="1.5"></path><path d="M363.26 498.7L557.63 522.31" stroke="hsl(4.100000000000023, 93.6%, 90.2%)" stroke-width="1.5"></path><path d="M363.26 498.7L517.17 676.17" stroke="hsl(4.100000000000023, 93.6%, 90.2%)" stroke-width="1.5"></path><path d="M700.83 402.54L700.83 402.54" stroke="hsl(4.100000000000023, 93.6%, 90.2%)" stroke-width="1.5"></path><path d="M700.83 402.54L794.31 349.13" stroke="hsl(4.100000000000023, 93.6%, 90.2%)" stroke-width="1.5"></path><path d="M700.83 402.54L828.95 508.78" stroke="hsl(4.100000000000023, 93.6%, 90.2%)" stroke-width="1.5"></path><path d="M700.83 402.54L557.63 522.31" stroke="hsl(4.100000000000023, 93.6%, 90.2%)" stroke-width="1.5"></path><path d="M1155.74 105.53L1155.74 105.53" stroke="hsl(4.100000000000023, 93.6%, 90.2%)" stroke-width="1.5"></path><path d="M1155.74 105.53L1307.12 54.62" stroke="hsl(4.100000000000023, 93.6%, 90.2%)" stroke-width="1.5"></path><path d="M1155.74 105.53L1303.34 187.77" stroke="hsl(4.100000000000023, 93.6%, 90.2%)" stroke-width="1.5"></path><path d="M1155.74 105.53L1253.15 -41.48" stroke="hsl(4.100000000000023, 93.6%, 90.2%)" stroke-width="1.5"></path><path d="M1155.74 105.53L1276.21 369.86" stroke="hsl(4.100000000000023, 93.6%, 90.2%)" stroke-width="1.5"></path><path d="M1155.74 105.53L1456.94 100.09" stroke="hsl(4.100000000000023, 93.6%, 90.2%)" stroke-width="1.5"></path><path d="M1096 412.03L1096 412.03" stroke="hsl(4.100000000000023, 93.6%, 90.2%)" stroke-width="1.5"></path><path d="M1096 412.03L1124.13 498.67" stroke="hsl(4.100000000000023, 93.6%, 90.2%)" stroke-width="1.5"></path><path d="M1096 412.03L988.37 403.71" stroke="hsl(4.100000000000023, 93.6%, 90.2%)" stroke-width="1.5"></path><path d="M1096 412.03L943.89 501.32" stroke="hsl(4.100000000000023, 93.6%, 90.2%)" stroke-width="1.5"></path><path d="M1096 412.03L1276.21 369.86" stroke="hsl(4.100000000000023, 93.6%, 90.2%)" stroke-width="1.5"></path><path d="M1096 412.03L1100.97 639.17" stroke="hsl(4.100000000000023, 93.6%, 90.2%)" stroke-width="1.5"></path><path d="M1096 412.03L1303.06 549.28" stroke="hsl(4.100000000000023, 93.6%, 90.2%)" stroke-width="1.5"></path><path d="M1124.13 498.67L1124.13 498.67" stroke="hsl(4.100000000000023, 93.6%, 90.2%)" stroke-width="1.5"></path><path d="M1124.13 498.67L1100.97 639.17" stroke="hsl(4.100000000000023, 93.6%, 90.2%)" stroke-width="1.5"></path><path d="M1124.13 498.67L988.37 403.71" stroke="hsl(4.100000000000023, 93.6%, 90.2%)" stroke-width="1.5"></path><path d="M1424.63 559.1L1424.63 559.1" stroke="hsl(4.100000000000023, 93.6%, 90.2%)" stroke-width="1.5"></path><path d="M1424.63 559.1L1402.7 658.23" stroke="hsl(4.100000000000023, 93.6%, 90.2%)" stroke-width="1.5"></path><path d="M1424.63 559.1L1303.06 549.28" stroke="hsl(4.100000000000023, 93.6%, 90.2%)" stroke-width="1.5"></path><path d="M1424.63 559.1L1409.69 403.78" stroke="hsl(4.100000000000023, 93.6%, 90.2%)" stroke-width="1.5"></path><path d="M1424.63 559.1L1584.88 526.96" stroke="hsl(4.100000000000023, 93.6%, 90.2%)" stroke-width="1.5"></path><path d="M1594.42 97.72L1594.42 97.72" stroke="hsl(4.100000000000023, 93.6%, 90.2%)" stroke-width="1.5"></path><path d="M1594.42 97.72L1456.94 100.09" stroke="hsl(4.100000000000023, 93.6%, 90.2%)" stroke-width="1.5"></path><path d="M1594.42 97.72L1599.28 237.98" stroke="hsl(4.100000000000023, 93.6%, 90.2%)" stroke-width="1.5"></path><path d="M1594.42 97.72L1568.55 -59.14" stroke="hsl(4.100000000000023, 93.6%, 90.2%)" stroke-width="1.5"></path><path d="M1594.42 97.72L1457.81 229.78" stroke="hsl(4.100000000000023, 93.6%, 90.2%)" stroke-width="1.5"></path><path d="M1584.88 526.96L1584.88 526.96" stroke="hsl(4.100000000000023, 93.6%, 90.2%)" stroke-width="1.5"></path><path d="M1584.88 526.96L1569.62 676.38" stroke="hsl(4.100000000000023, 93.6%, 90.2%)" stroke-width="1.5"></path><path d="M1584.88 526.96L1611.45 364.15" stroke="hsl(4.100000000000023, 93.6%, 90.2%)" stroke-width="1.5"></path><path d="M1584.88 526.96L1409.69 403.78" stroke="hsl(4.100000000000023, 93.6%, 90.2%)" stroke-width="1.5"></path><path d="M1584.88 526.96L1402.7 658.23" stroke="hsl(4.100000000000023, 93.6%, 90.2%)" stroke-width="1.5"></path><path d="M1584.88 526.96L1303.06 549.28" stroke="hsl(4.100000000000023, 93.6%, 90.2%)" stroke-width="1.5"></path><path d="M-91.06 687.33L-91.06 687.33" stroke="hsl(4.100000000000023, 93.6%, 90.2%)" stroke-width="1.5"></path><path d="M-91.06 687.33L82.98 670.32" stroke="hsl(4.100000000000023, 93.6%, 90.2%)" stroke-width="1.5"></path><path d="M54.03 511.59L54.03 511.59" stroke="hsl(4.100000000000023, 93.6%, 90.2%)" stroke-width="1.5"></path><path d="M54.03 511.59L82.98 670.32" stroke="hsl(4.100000000000023, 93.6%, 90.2%)" stroke-width="1.5"></path><path d="M54.03 511.59L226.93 557.88" stroke="hsl(4.100000000000023, 93.6%, 90.2%)" stroke-width="1.5"></path><path d="M82.98 670.32L82.98 670.32" stroke="hsl(4.100000000000023, 93.6%, 90.2%)" stroke-width="1.5"></path><path d="M82.98 670.32L226.93 557.88" stroke="hsl(4.100000000000023, 93.6%, 90.2%)" stroke-width="1.5"></path><path d="M226.93 557.88L226.93 557.88" stroke="hsl(4.100000000000023, 93.6%, 90.2%)" stroke-width="1.5"></path><path d="M226.93 557.88L365.48 678.16" stroke="hsl(4.100000000000023, 93.6%, 90.2%)" stroke-width="1.5"></path><path d="M365.48 678.16L365.48 678.16" stroke="hsl(4.100000000000023, 93.6%, 90.2%)" stroke-width="1.5"></path><path d="M557.63 522.31L557.63 522.31" stroke="hsl(4.100000000000023, 93.6%, 90.2%)" stroke-width="1.5"></path><path d="M557.63 522.31L517.17 676.17" stroke="hsl(4.100000000000023, 93.6%, 90.2%)" stroke-width="1.5"></path><path d="M557.63 522.31L706.73 691.82" stroke="hsl(4.100000000000023, 93.6%, 90.2%)" stroke-width="1.5"></path><path d="M557.63 522.31L365.48 678.16" stroke="hsl(4.100000000000023, 93.6%, 90.2%)" stroke-width="1.5"></path><path d="M517.17 676.17L517.17 676.17" stroke="hsl(4.100000000000023, 93.6%, 90.2%)" stroke-width="1.5"></path><path d="M517.17 676.17L365.48 678.16" stroke="hsl(4.100000000000023, 93.6%, 90.2%)" stroke-width="1.5"></path><path d="M517.17 676.17L706.73 691.82" stroke="hsl(4.100000000000023, 93.6%, 90.2%)" stroke-width="1.5"></path><path d="M706.73 691.82L706.73 691.82" stroke="hsl(4.100000000000023, 93.6%, 90.2%)" stroke-width="1.5"></path><path d="M706.73 691.82L823.02 681.15" stroke="hsl(4.100000000000023, 93.6%, 90.2%)" stroke-width="1.5"></path><path d="M706.73 691.82L828.95 508.78" stroke="hsl(4.100000000000023, 93.6%, 90.2%)" stroke-width="1.5"></path><path d="M706.73 691.82L700.83 402.54" stroke="hsl(4.100000000000023, 93.6%, 90.2%)" stroke-width="1.5"></path><path d="M794.31 349.13L794.31 349.13" stroke="hsl(4.100000000000023, 93.6%, 90.2%)" stroke-width="1.5"></path><path d="M794.31 349.13L828.95 508.78" stroke="hsl(4.100000000000023, 93.6%, 90.2%)" stroke-width="1.5"></path><path d="M794.31 349.13L988.37 403.71" stroke="hsl(4.100000000000023, 93.6%, 90.2%)" stroke-width="1.5"></path><path d="M794.31 349.13L943.89 501.32" stroke="hsl(4.100000000000023, 93.6%, 90.2%)" stroke-width="1.5"></path><path d="M828.95 508.78L828.95 508.78" stroke="hsl(4.100000000000023, 93.6%, 90.2%)" stroke-width="1.5"></path><path d="M828.95 508.78L943.89 501.32" stroke="hsl(4.100000000000023, 93.6%, 90.2%)" stroke-width="1.5"></path><path d="M828.95 508.78L823.02 681.15" stroke="hsl(4.100000000000023, 93.6%, 90.2%)" stroke-width="1.5"></path><path d="M828.95 508.78L988.37 403.71" stroke="hsl(4.100000000000023, 93.6%, 90.2%)" stroke-width="1.5"></path><path d="M823.02 681.15L823.02 681.15" stroke="hsl(4.100000000000023, 93.6%, 90.2%)" stroke-width="1.5"></path><path d="M823.02 681.15L1009.24 670.26" stroke="hsl(4.100000000000023, 93.6%, 90.2%)" stroke-width="1.5"></path><path d="M823.02 681.15L943.89 501.32" stroke="hsl(4.100000000000023, 93.6%, 90.2%)" stroke-width="1.5"></path><path d="M823.02 681.15L1100.97 639.17" stroke="hsl(4.100000000000023, 93.6%, 90.2%)" stroke-width="1.5"></path><path d="M988.37 403.71L988.37 403.71" stroke="hsl(4.100000000000023, 93.6%, 90.2%)" stroke-width="1.5"></path><path d="M988.37 403.71L943.89 501.32" stroke="hsl(4.100000000000023, 93.6%, 90.2%)" stroke-width="1.5"></path><path d="M943.89 501.32L943.89 501.32" stroke="hsl(4.100000000000023, 93.6%, 90.2%)" stroke-width="1.5"></path><path d="M1009.24 670.26L1009.24 670.26" stroke="hsl(4.100000000000023, 93.6%, 90.2%)" stroke-width="1.5"></path><path d="M1009.24 670.26L1100.97 639.17" stroke="hsl(4.100000000000023, 93.6%, 90.2%)" stroke-width="1.5"></path><path d="M1009.24 670.26L943.89 501.32" stroke="hsl(4.100000000000023, 93.6%, 90.2%)" stroke-width="1.5"></path><path d="M1009.24 670.26L1124.13 498.67" stroke="hsl(4.100000000000023, 93.6%, 90.2%)" stroke-width="1.5"></path><path d="M1009.24 670.26L828.95 508.78" stroke="hsl(4.100000000000023, 93.6%, 90.2%)" stroke-width="1.5"></path><path d="M1009.24 670.26L1260.86 704.16" stroke="hsl(4.100000000000023, 93.6%, 90.2%)" stroke-width="1.5"></path><path d="M1100.97 639.17L1100.97 639.17" stroke="hsl(4.100000000000023, 93.6%, 90.2%)" stroke-width="1.5"></path><path d="M1100.97 639.17L1260.86 704.16" stroke="hsl(4.100000000000023, 93.6%, 90.2%)" stroke-width="1.5"></path><path d="M1100.97 639.17L943.89 501.32" stroke="hsl(4.100000000000023, 93.6%, 90.2%)" stroke-width="1.5"></path><path d="M1100.97 639.17L1303.06 549.28" stroke="hsl(4.100000000000023, 93.6%, 90.2%)" stroke-width="1.5"></path><path d="M1253.15 -41.48L1253.15 -41.48" stroke="hsl(4.100000000000023, 93.6%, 90.2%)" stroke-width="1.5"></path><path d="M1253.15 -41.48L1307.12 54.62" stroke="hsl(4.100000000000023, 93.6%, 90.2%)" stroke-width="1.5"></path><path d="M1253.15 -41.48L1303.34 187.77" stroke="hsl(4.100000000000023, 93.6%, 90.2%)" stroke-width="1.5"></path><path d="M1307.12 54.62L1307.12 54.62" stroke="hsl(4.100000000000023, 93.6%, 90.2%)" stroke-width="1.5"></path><path d="M1307.12 54.62L1303.34 187.77" stroke="hsl(4.100000000000023, 93.6%, 90.2%)" stroke-width="1.5"></path><path d="M1307.12 54.62L1456.94 100.09" stroke="hsl(4.100000000000023, 93.6%, 90.2%)" stroke-width="1.5"></path><path d="M1303.34 187.77L1303.34 187.77" stroke="hsl(4.100000000000023, 93.6%, 90.2%)" stroke-width="1.5"></path><path d="M1303.34 187.77L1457.81 229.78" stroke="hsl(4.100000000000023, 93.6%, 90.2%)" stroke-width="1.5"></path><path d="M1276.21 369.86L1276.21 369.86" stroke="hsl(4.100000000000023, 93.6%, 90.2%)" stroke-width="1.5"></path><path d="M1276.21 369.86L1409.69 403.78" stroke="hsl(4.100000000000023, 93.6%, 90.2%)" stroke-width="1.5"></path><path d="M1276.21 369.86L1303.06 549.28" stroke="hsl(4.100000000000023, 93.6%, 90.2%)" stroke-width="1.5"></path><path d="M1276.21 369.86L1303.34 187.77" stroke="hsl(4.100000000000023, 93.6%, 90.2%)" stroke-width="1.5"></path><path d="M1276.21 369.86L1124.13 498.67" stroke="hsl(4.100000000000023, 93.6%, 90.2%)" stroke-width="1.5"></path><path d="M1276.21 369.86L1457.81 229.78" stroke="hsl(4.100000000000023, 93.6%, 90.2%)" stroke-width="1.5"></path><path d="M1303.06 549.28L1303.06 549.28" stroke="hsl(4.100000000000023, 93.6%, 90.2%)" stroke-width="1.5"></path><path d="M1303.06 549.28L1402.7 658.23" stroke="hsl(4.100000000000023, 93.6%, 90.2%)" stroke-width="1.5"></path><path d="M1260.86 704.16L1260.86 704.16" stroke="hsl(4.100000000000023, 93.6%, 90.2%)" stroke-width="1.5"></path><path d="M1260.86 704.16L1402.7 658.23" stroke="hsl(4.100000000000023, 93.6%, 90.2%)" stroke-width="1.5"></path><path d="M1260.86 704.16L1303.06 549.28" stroke="hsl(4.100000000000023, 93.6%, 90.2%)" stroke-width="1.5"></path><path d="M1260.86 704.16L1424.63 559.1" stroke="hsl(4.100000000000023, 93.6%, 90.2%)" stroke-width="1.5"></path><path d="M1456.94 100.09L1456.94 100.09" stroke="hsl(4.100000000000023, 93.6%, 90.2%)" stroke-width="1.5"></path><path d="M1456.94 100.09L1457.81 229.78" stroke="hsl(4.100000000000023, 93.6%, 90.2%)" stroke-width="1.5"></path><path d="M1457.81 229.78L1457.81 229.78" stroke="hsl(4.100000000000023, 93.6%, 90.2%)" stroke-width="1.5"></path><path d="M1457.81 229.78L1599.28 237.98" stroke="hsl(4.100000000000023, 93.6%, 90.2%)" stroke-width="1.5"></path><path d="M1457.81 229.78L1409.69 403.78" stroke="hsl(4.100000000000023, 93.6%, 90.2%)" stroke-width="1.5"></path><path d="M1457.81 229.78L1611.45 364.15" stroke="hsl(4.100000000000023, 93.6%, 90.2%)" stroke-width="1.5"></path><path d="M1409.69 403.78L1409.69 403.78" stroke="hsl(4.100000000000023, 93.6%, 90.2%)" stroke-width="1.5"></path><path d="M1409.69 403.78L1303.06 549.28" stroke="hsl(4.100000000000023, 93.6%, 90.2%)" stroke-width="1.5"></path><path d="M1409.69 403.78L1611.45 364.15" stroke="hsl(4.100000000000023, 93.6%, 90.2%)" stroke-width="1.5"></path><path d="M1402.7 658.23L1402.7 658.23" stroke="hsl(4.100000000000023, 93.6%, 90.2%)" stroke-width="1.5"></path><path d="M1568.55 -59.14L1568.55 -59.14" stroke="hsl(4.100000000000023, 93.6%, 90.2%)" stroke-width="1.5"></path><path d="M1599.28 237.98L1599.28 237.98" stroke="hsl(4.100000000000023, 93.6%, 90.2%)" stroke-width="1.5"></path><path d="M1599.28 237.98L1611.45 364.15" stroke="hsl(4.100000000000023, 93.6%, 90.2%)" stroke-width="1.5"></path><path d="M1599.28 237.98L1456.94 100.09" stroke="hsl(4.100000000000023, 93.6%, 90.2%)" stroke-width="1.5"></path><path d="M1599.28 237.98L1409.69 403.78" stroke="hsl(4.100000000000023, 93.6%, 90.2%)" stroke-width="1.5"></path><path d="M1611.45 364.15L1611.45 364.15" stroke="hsl(4.100000000000023, 93.6%, 90.2%)" stroke-width="1.5"></path><path d="M1611.45 364.15L1594.42 97.72" stroke="hsl(4.100000000000023, 93.6%, 90.2%)" stroke-width="1.5"></path><path d="M1569.62 676.38L1569.62 676.38" stroke="hsl(4.100000000000023, 93.6%, 90.2%)" stroke-width="1.5"></path><circle r="25" cx="-59.57" cy="543.83" fill="url(&quot;#SvgjsRadialGradient1063&quot;)"></circle><circle r="25" cx="219.26" cy="662.38" fill="url(&quot;#SvgjsRadialGradient1063&quot;)"></circle><circle r="25" cx="363.26" cy="498.7" fill="url(&quot;#SvgjsRadialGradient1063&quot;)"></circle><circle r="25" cx="700.83" cy="402.54" fill="url(&quot;#SvgjsRadialGradient1063&quot;)"></circle><circle r="25" cx="1155.74" cy="105.53" fill="url(&quot;#SvgjsRadialGradient1063&quot;)"></circle><circle r="25" cx="1096" cy="412.03" fill="url(&quot;#SvgjsRadialGradient1063&quot;)"></circle><circle r="25" cx="1124.13" cy="498.67" fill="url(&quot;#SvgjsRadialGradient1063&quot;)"></circle><circle r="25" cx="1424.63" cy="559.1" fill="url(&quot;#SvgjsRadialGradient1063&quot;)"></circle><circle r="25" cx="1594.42" cy="97.72" fill="url(&quot;#SvgjsRadialGradient1063&quot;)"></circle><circle r="25" cx="1584.88" cy="526.96" fill="url(&quot;#SvgjsRadialGradient1063&quot;)"></circle><circle r="5" cx="-91.06" cy="687.33" fill="#fdb9b4"></circle><circle r="5" cx="54.03" cy="511.59" fill="#fdb9b4"></circle><circle r="5" cx="82.98" cy="670.32" fill="#fdb9b4"></circle><circle r="5" cx="226.93" cy="557.88" fill="#fdb9b4"></circle><circle r="5" cx="365.48" cy="678.16" fill="#fdb9b4"></circle><circle r="5" cx="557.63" cy="522.31" fill="#fdb9b4"></circle><circle r="5" cx="517.17" cy="676.17" fill="#fdb9b4"></circle><circle r="5" cx="706.73" cy="691.82" fill="#fdb9b4"></circle><circle r="5" cx="794.31" cy="349.13" fill="#fdb9b4"></circle><circle r="5" cx="828.95" cy="508.78" fill="#fdb9b4"></circle><circle r="5" cx="823.02" cy="681.15" fill="#fdb9b4"></circle><circle r="5" cx="988.37" cy="403.71" fill="#fdb9b4"></circle><circle r="5" cx="943.89" cy="501.32" fill="#fdb9b4"></circle><circle r="5" cx="1009.24" cy="670.26" fill="#fdb9b4"></circle><circle r="5" cx="1100.97" cy="639.17" fill="#fdb9b4"></circle><circle r="5" cx="1253.15" cy="-41.48" fill="#fdb9b4"></circle><circle r="5" cx="1307.12" cy="54.62" fill="#fdb9b4"></circle><circle r="5" cx="1303.34" cy="187.77" fill="#fdb9b4"></circle><circle r="5" cx="1276.21" cy="369.86" fill="#fdb9b4"></circle><circle r="5" cx="1303.06" cy="549.28" fill="#fdb9b4"></circle><circle r="5" cx="1260.86" cy="704.16" fill="#fdb9b4"></circle><circle r="5" cx="1456.94" cy="100.09" fill="#fdb9b4"></circle><circle r="5" cx="1457.81" cy="229.78" fill="#fdb9b4"></circle><circle r="5" cx="1409.69" cy="403.78" fill="#fdb9b4"></circle><circle r="5" cx="1402.7" cy="658.23" fill="#fdb9b4"></circle><circle r="5" cx="1568.55" cy="-59.14" fill="#fdb9b4"></circle><circle r="5" cx="1599.28" cy="237.98" fill="#fdb9b4"></circle><circle r="5" cx="1611.45" cy="364.15" fill="#fdb9b4"></circle><circle r="5" cx="1569.62" cy="676.38" fill="#fdb9b4"></circle></g><defs><mask id="SvgjsMask1061"><rect width="1440" height="560" fill="#ffffff"></rect></mask><linearGradient x1="15.28%" y1="-39.29%" x2="84.72%" y2="139.29%" gradientUnits="userSpaceOnUse" id="SvgjsLinearGradient1062"><stop stop-color="#0e2a47" offset="0"></stop><stop stop-color="rgba(0, 18, 32, 1)" offset="1"></stop></linearGradient><radialGradient id="SvgjsRadialGradient1063"><stop stop-color="#ffffff" offset="0.1"></stop><stop stop-color="rgba(250, 114, 104, 1)" offset="0.2"></stop><stop stop-color="rgba(250, 114, 104, 0)" offset="1"></stop></radialGradient></defs></svg>